PathFileType	4	(X/Y/Z)	C:\Users\Basilio\Documents\Thesis Gigler\squatting_fais\c3dfiles\041\SLS_pre_back4\markers_experimental.trc
DataRate	CameraRate	NumFrames	NumMarkers	Units	OrigDataRate	OrigDataStartFrame	OrigNumFrames
200.000000	200.000000	4	64	mm	200.000000	1113	1272
Frame#	Time	FHD			LBHD			RBHD			C7			T10			CLAV			LSHO			LUUPA			LMUPA			LDUPA			LLEP			LMEP			LRAD			LUL			LRFIN			RSHO			RUPA1			RMUPA			RDUPA			RLEP			RMEP			RRAD			RUL			RUFIN			LASI			RASI			USACR			LSACR			RSACR			LTHI1			LTHI2			LTHI3			LTHI4			LLFC			LMFC			LTIB1			LTIB2			LTIB3			LTIB4			LLMAL			LMMAL			LHEE			LMT1			LMT2			LMT5			RTHI			RTHI2			RTHI3			RTHI4			RLFC			RMFC			RTIB1			RTIB2			RTIB3			RTIB4			RLMAL			RMMAL			RHEE			RMT1			RMT2			RMT5			*61			*62			*63			
		X1	Y1	Z1	X2	Y2	Z2	X3	Y3	Z3	X4	Y4	Z4	X5	Y5	Z5	X6	Y6	Z6	X7	Y7	Z7	X8	Y8	Z8	X9	Y9	Z9	X10	Y10	Z10	X11	Y11	Z11	X12	Y12	Z12	X13	Y13	Z13	X14	Y14	Z14	X15	Y15	Z15	X16	Y16	Z16	X17	Y17	Z17	X18	Y18	Z18	X19	Y19	Z19	X20	Y20	Z20	X21	Y21	Z21	X22	Y22	Z22	X23	Y23	Z23	X24	Y24	Z24	X25	Y25	Z25	X26	Y26	Z26	X27	Y27	Z27	X28	Y28	Z28	X29	Y29	Z29	X30	Y30	Z30	X31	Y31	Z31	X32	Y32	Z32	X33	Y33	Z33	X34	Y34	Z34	X35	Y35	Z35	X36	Y36	Z36	X37	Y37	Z37	X38	Y38	Z38	X39	Y39	Z39	X40	Y40	Z40	X41	Y41	Z41	X42	Y42	Z42	X43	Y43	Z43	X44	Y44	Z44	X45	Y45	Z45	X46	Y46	Z46	X47	Y47	Z47	X48	Y48	Z48	X49	Y49	Z49	X50	Y50	Z50	X51	Y51	Z51	X52	Y52	Z52	X53	Y53	Z53	X54	Y54	Z54	X55	Y55	Z55	X56	Y56	Z56	X57	Y57	Z57	X58	Y58	Z58	X59	Y59	Z59	X60	Y60	Z60	X61	Y61	Z61	X62	Y62	Z62	X63	Y63	Z63	X64	Y64	Z64	

1114	5.565	-266.3990173339844	1791.773193359375	-956.4376220703127	-433.7185974121095	1700.629272460938	-1028.663330078125	-408.6911926269532	1701.048828125	-877.6545410156252	-455.1416931152345	1559.362915039063	-977.5351562500002	-469.3599853515626	1241.16552734375	-989.4768066406252	-293.5881958007813	1501.671508789063	-982.4039306640627	-373.8553161621094	1556.001098632813	-1156.194458007813	-404.207733154297	1361.366088867188	-1243.697021484375	-370.2803344726563	1328.845703125	-1230.333862304688	-413.9518432617189	1293.52490234375	-1256.248413085938	-419.8161010742189	1244.14208984375	-1257.873168945313	-435.4797668457032	1212.060180664063	-1178.049926757813	-289.3645629882813	996.6699829101565	-1232.35546875	-351.1218566894532	987.8769531250002	-1274.638427734375	-256.4130859375001	932.9046630859377	-1264.018188476563	-359.4422912597657	1533.473510742188	-804.9687500000002	-421.8746032714845	1322.345581054688	-723.4288940429689	-372.6283874511719	1310.807983398438	-720.8479003906251	-397.1409912109376	1257.8173828125	-708.9490356445314	-390.5101013183595	1213.474853515625	-703.4696655273439	-409.9071350097657	1190.14208984375	-788.8403930664065	-254.1583862304688	987.6796875000002	-747.3515014648439	-314.4900817871094	967.9019165039065	-705.6270751953126	-212.2837677001954	926.048278808594	-723.4384155273439	-280.3918151855469	1062.9365234375	-1096.25390625	-294.2178039550782	1058.252075195313	-869.017028808594	-468.0173339843751	1126.717407226563	-991.6052246093752	-480.429168701172	1099.934326171875	-1018.484436035156	-487.3946838378907	1101.03857421875	-964.5366821289065	-386.085662841797	850.2395629882815	-1165.585571289063	-346.5513916015626	774.779968261719	-1160.5634765625	-299.7601318359376	781.5280761718752	-1151.863403320313	-370.9126281738282	720.4795532226564	-1151.81396484375	-342.0143127441407	542.2012329101564	-1138.031005859375	-340.8322448730469	521.4498901367189	-1018.280334472656	-310.8393249511719	349.5825500488282	-1081.69189453125	-354.0037841796876	306.2777099609376	-1147.857177734375	-317.0520019531251	302.6753540039063	-1119.369506835938	-321.4266662597657	225.0980682373047	-1087.915649414063	-373.5736389160157	129.812973022461	-1132.2470703125	-344.0003051757813	136.2325897216797	-1048.208740234375	-441.7906799316407	112.4562606811524	-1096.231323242188	-238.6710662841797	63.52062225341798	-1050.55029296875	-226.9848022460938	57.49376678466798	-1094.887451171875	-270.1893005371094	42.37797164916993	-1152.29931640625	-381.6043090820313	791.1594238281252	-794.626647949219	-335.3936462402344	745.5740966796876	-782.1938476562502	-302.8901062011719	753.3234863281251	-781.724060058594	-344.7768249511719	661.8040771484376	-794.9710693359377	-334.0399780273438	544.0017089843751	-793.6135253906252	-291.0887145996094	523.0234985351564	-900.5090942382815	-346.9531250000001	375.4023132324219	-804.7194824218752	-450.014373779297	330.1393432617188	-817.668151855469	-408.3215332031251	313.0178222656251	-807.3735351562502	-395.8144531250001	260.4139404296876	-834.421569824219	-489.1299133300782	170.1139068603516	-842.9658203125002	-439.3706359863282	177.949447631836	-911.679870605469	-543.0773925781251	149.4125061035157	-910.206481933594	-338.0136718750001	83.66355133056642	-873.726501464844	-346.0014343261719	86.3015594482422	-821.7652587890627	-402.0892639160157	82.81302642822267	-782.9461669921877	-4216.809570312501	853.078063964844	-3944.738281250001	nan	nan	nan	nan	nan	nan	
1115	5.57	-266.4902954101563	1791.926879882813	-955.9412231445315	-433.8102416992189	1700.646362304688	-1027.96337890625	-408.619598388672	1701.099609375	-876.795837402344	-455.2080383300782	1559.495239257813	-976.8977661132815	-469.4338684082032	1241.198486328125	-988.916687011719	-293.6943664550782	1501.606201171875	-981.5295410156252	-373.7373657226563	1555.874633789063	-1155.583618164063	-404.9891357421876	1361.26611328125	-1242.881958007813	-370.6255798339844	1328.517822265625	-1229.7158203125	-414.5792236328126	1293.220703125	-1255.089599609375	-421.1547851562501	1244.149658203125	-1256.551513671875	-437.1588134765626	1212.3623046875	-1176.616455078125	-296.4981384277344	994.4832153320315	-1231.689086914063	-357.3632202148438	986.907165527344	-1274.261596679688	-264.1804504394532	929.3480224609377	-1263.239135742188	-359.7627868652344	1533.387573242188	-804.106384277344	-422.9402770996095	1322.474487304688	-722.9573974609376	-374.0975341796876	1310.571655273438	-719.5907592773439	-398.9820251464845	1257.724731445313	-708.1093750000001	-392.7913818359376	1213.41259765625	-702.4701538085939	-411.5506286621095	1190.137084960938	-788.424011230469	-258.5164184570313	985.9270629882815	-745.4433593750001	-319.4297485351563	966.9743652343752	-703.8261718750001	-217.5086975097657	923.9495849609377	-721.3983154296876	-280.4917602539063	1062.980712890625	-1095.365356445313	-294.3803100585938	1058.426025390625	-868.3499755859377	-468.3382263183595	1126.922607421875	-991.0965576171877	-480.4889526367189	1099.964721679688	-1017.936950683594	-487.4783325195314	1101.110717773438	-963.971618652344	-386.1517028808595	850.2280273437502	-1165.061889648438	-346.6039733886719	774.869079589844	-1160.1552734375	-299.9271240234376	781.5379028320315	-1151.262817382813	-371.0480957031251	720.5251464843751	-1151.271850585938	-342.2274475097657	542.3275146484376	-1137.703247070313	-341.0494384765626	521.4504394531251	-1017.9853515625	-311.2193908691407	349.6290283203126	-1081.397583007813	-354.0907287597657	306.3344726562501	-1147.718505859375	-317.2008361816407	302.8460388183594	-1119.253051757813	-321.5294494628907	225.0862121582032	-1087.900146484375	-373.5902099609376	129.8297729492188	-1132.2470703125	-344.0252685546876	136.2582244873047	-1048.187622070313	-441.9005432128907	112.5027160644532	-1096.287109375	-238.6168823242188	63.4994468688965	-1050.570068359375	-226.9645996093751	57.61781311035158	-1094.794067382813	-270.1867370605469	42.42626190185548	-1152.309204101563	-381.8201904296876	791.0660400390627	-794.1766357421877	-335.5123901367188	745.8145141601564	-781.898620605469	-303.3576049804688	753.3863525390626	-780.9318847656252	-344.9800415039063	661.7653808593751	-794.5609130859377	-334.4241333007813	543.9304809570314	-793.2053222656252	-291.2669372558594	523.0772094726564	-900.070007324219	-347.2592773437501	375.2575988769532	-804.2681274414065	-450.1577758789064	330.0901794433594	-817.457214355469	-408.5189514160157	312.8567810058594	-807.1080322265627	-395.9361572265626	260.3837280273438	-834.2536621093752	-489.1676635742189	169.9793701171875	-842.918884277344	-439.3496093750001	177.9769592285157	-911.5151977539065	-543.1040039062501	149.3888702392578	-910.218933105469	-338.0235290527344	83.62629699707033	-873.7114868164065	-345.9691772460938	86.30317687988283	-821.7706298828127	-402.0898742675782	82.72657775878908	-782.9399414062502	-4217.455078125001	853.2112426757815	-3944.657714843751	nan	nan	nan	nan	nan	nan	
1116	5.575	-266.3737487792969	1791.961059570313	-955.2393188476565	-433.7589416503907	1700.681640625	-1027.233642578125	-408.3302612304689	1701.200561523438	-876.1423950195315	-455.102996826172	1559.484497070313	-976.222839355469	-469.4840393066407	1241.235473632813	-988.4102783203127	-293.7920532226563	1501.770263671875	-980.6445312500002	-373.4309082031251	1555.749755859375	-1154.929321289063	-405.5440063476564	1361.14501953125	-1242.04736328125	-371.5378723144532	1328.163696289063	-1228.635131835938	-415.9929504394532	1293.193725585938	-1254.034912109375	-422.5605773925782	1244.117431640625	-1255.241577148438	-438.8111877441407	1212.592041015625	-1175.218383789063	-302.4570312500001	991.8807373046877	-1231.139770507813	-363.7685852050782	985.9614257812502	-1273.898681640625	-272.2041320800782	926.1921386718752	-1262.737182617188	-360.0403137207032	1533.265991210938	-803.2655029296877	-424.2755737304689	1322.548828125	-722.4128417968751	-375.1856994628907	1310.421997070313	-719.0130004882814	-400.3790283203126	1257.685180664063	-707.7747802734376	-394.2843322753907	1213.462280273438	-702.4530029296876	-413.1223449707032	1190.247802734375	-787.9506835937502	-262.6373901367188	984.090026855469	-743.5294799804689	-324.0465087890626	966.120544433594	-702.4672851562501	-222.7232360839844	921.494567871094	-718.6145019531251	-280.4437866210938	1063.036865234375	-1094.615966796875	-294.4062194824219	1058.44482421875	-867.766052246094	-468.3973999023439	1127.000366210938	-990.4746093750002	-480.510955810547	1100.033081054688	-1017.324401855469	-487.8825683593751	1101.188598632813	-963.6312255859377	-386.1505126953126	850.2661743164065	-1164.48779296875	-346.7107543945313	774.927917480469	-1159.622802734375	-299.0830993652344	781.1115722656252	-1150.906005859375	-371.1660766601563	720.5091552734376	-1150.8154296875	-342.3919372558594	542.3504638671876	-1137.289306640625	-341.2316589355469	521.3950195312501	-1017.68408203125	-311.3274536132813	349.6708984375001	-1081.129760742188	-354.1240844726563	306.4068298339844	-1147.581909179688	-317.4020385742188	303.0025329589844	-1119.044555664063	-321.5080261230469	225.1765136718751	-1087.782836914063	-373.6467285156251	129.8261108398438	-1132.192260742188	-344.0516357421876	136.2532348632813	-1048.119873046875	-441.8746643066407	112.4662551879883	-1096.289672851563	-238.6447448730469	63.52612304687501	-1050.546875	-226.7312164306641	57.84469604492189	-1094.839965820313	-270.2007141113282	42.44412231445313	-1152.290161132813	-382.1528015136719	791.130310058594	-793.4211425781252	-335.8562622070313	745.8413696289064	-781.411315917969	-303.7962646484376	753.4563598632814	-780.221130371094	-345.2627868652344	661.8624267578126	-794.174499511719	-334.7855834960938	543.7149658203126	-792.7859497070315	-290.6632690429688	522.7783813476564	-899.2958984375002	-347.4350280761719	375.3180541992188	-803.8909912109377	-450.2495422363282	330.0137939453126	-817.3374633789065	-408.5444946289064	312.8269653320313	-806.8867797851565	-396.103240966797	260.3659667968751	-834.0483398437502	-489.2160949707032	169.8985595703125	-842.8074951171877	-439.4190673828126	178.0032653808594	-911.4116210937502	-543.1536254882814	149.3668060302735	-910.2522583007815	-338.0132751464844	83.62290191650392	-873.7552490234377	-346.0335998535157	86.29770660400392	-821.747497558594	-402.0958557128907	82.68679809570314	-782.944030761719	-4217.207519531251	853.183532714844	-3944.684326171876	nan	nan	nan	nan	nan	nan	
1117	5.58	-266.1952819824219	1792.016357421875	-954.5523681640627	-433.6077880859376	1700.737060546875	-1026.418090820313	-408.116912841797	1701.257690429688	-875.5652465820315	-455.1870422363282	1559.588989257813	-975.6607666015627	-469.5806274414064	1241.357177734375	-987.904479980469	-293.8139648437501	1501.6884765625	-979.7812500000002	-373.2740478515626	1555.660034179688	-1154.297973632813	-406.3164672851564	1361.000366210938	-1241.020141601563	-372.5032653808594	1327.80810546875	-1227.53515625	-416.6648254394532	1292.889282226563	-1252.849243164063	-424.0292358398439	1244.1171875	-1253.873413085938	-440.353485107422	1212.83251953125	-1173.846557617188	-308.9759826660157	989.6301269531252	-1230.450927734375	-370.1131591796876	985.2446899414065	-1273.695434570313	-280.0274047851563	923.0050048828127	-1261.9462890625	-360.3780212402344	1533.230834960938	-802.4085083007815	-425.3637695312501	1322.594116210938	-721.9684448242189	-376.6541748046876	1310.2470703125	-718.4165039062501	-401.8842773437501	1257.6513671875	-707.1604614257814	-396.1960754394532	1213.42919921875	-701.9195556640626	-414.5393066406251	1190.376098632813	-787.4106445312502	-267.0682373046876	982.5141601562502	-741.4574584960939	-328.7879028320313	965.332946777344	-700.9997558593751	-228.0560455322266	919.2513427734377	-716.3466186523439	-280.2974548339844	1063.035278320313	-1093.995239257813	-294.6619262695313	1058.341552734375	-866.891052246094	-468.4490356445314	1127.03564453125	-990.046325683594	-480.4419555664064	1100.089599609375	-1016.831481933594	-487.8023681640626	1101.198364257813	-963.1184082031252	-386.3459777832032	850.2862548828127	-1164.366943359375	-346.9138793945313	775.1522216796877	-1159.324462890625	-299.0412902832032	780.9270019531252	-1150.276611328125	-371.2303466796876	720.5917968750001	-1150.4326171875	-342.5979003906251	542.4554443359376	-1136.938232421875	-341.4286499023438	521.3663940429689	-1017.408752441406	-311.3886108398438	349.7331237792969	-1080.938598632813	-354.3261718750001	306.5261840820313	-1147.424926757813	-317.6216430664063	303.1932678222657	-1118.92724609375	-321.5003356933594	225.3086395263672	-1087.674438476563	-373.6176757812501	129.8902587890625	-1132.182006835938	-344.0371093750001	136.3106231689453	-1048.10791015625	-441.8762207031251	112.5468902587891	-1096.3154296875	-238.6421966552735	63.53161621093751	-1050.564331054688	-226.9719848632813	57.47450256347658	-1094.868774414063	-270.1907958984376	42.44124221801759	-1152.259887695313	-382.5901794433594	791.0434570312502	-792.6719970703127	-336.2276000976563	745.6299438476564	-780.6868896484377	-304.0392761230469	753.4102172851564	-779.7673950195315	-345.6676025390626	661.8970336914064	-793.652526855469	-335.0818786621094	543.6057739257814	-792.1610107421877	-289.6265869140626	522.9826660156251	-898.9946899414065	-347.5328674316407	375.3086853027344	-803.6040039062502	-450.5593872070314	329.9698181152344	-817.126892089844	-408.7923583984376	312.7409362792969	-806.6839599609377	-396.3380126953126	260.2947387695313	-833.7237548828127	-489.3142395019532	169.7806243896485	-842.7346801757815	-439.405242919922	177.9889221191407	-911.2678222656252	-543.1740722656251	149.3140411376953	-910.2617797851565	-338.0514221191407	83.62123870849611	-873.6980590820315	-346.0334167480469	86.29795074462892	-821.7474365234377	-402.1153259277345	82.66196441650392	-782.9219360351565	-4217.201660156251	853.233337402344	-3944.607910156251	nan	nan	nan	nan	nan	nan	
